# xmcd CD database file
#
# Track frame offsets:
#	150
#	9762
#	29759
#	41780
#	55748
#	75886
#
# Disc length: 1206 seconds
#
# Revision: 0
# Processed by: cddbd v1.5.1PL0 Copyright (c) Steve Scherf et al.
# Submitted via: CDex 1.51
#
DISCID=3a04b406
DTITLE=Andy Green - Railroad Tracks
DYEAR=1900
DGENRE=Blues
TTITLE0=Rocking Daddy
TTITLE1=Little Boy Blue
TTITLE2=It Must Have Been The Devil
TTITLE3=How Long Blues
TTITLE4=Monkey Face Woman
TTITLE5=Andy´s Boogie
EXTD=
EXTT0=
EXTT1=
EXTT2=
EXTT3=
EXTT4=
EXTT5=
PLAYORDER=
